<svg xmlns="http://www.w3.org/2000/svg" viewBox="0 0 348.19 433.33"><defs><style>.cls-1{fill:none;stroke:#000;stroke-linecap:round;stroke-miterlimit:10;stroke-width:20.7px;}</style></defs><g id="레이어_2" data-name="레이어 2"><g id="레이어_1-2" data-name="레이어 1"><path class="cls-1" d="M33.83,69.28C23.83,72.33,159-57,303,58.28"/><path class="cls-1" d="M19.22,147c4,4.15,133-213.26,296.87-17.22"/><path class="cls-1" d="M10.35,219l29.74-27.13s51.13-120.52,167-97.57,88.17,156,88.17,156l-5.74,48.52s17.22,49.57,33.39,49.57"/><path class="cls-1" d="M326.53,166.28s24,93.39,2.08,134.61"/><path class="cls-1" d="M15.05,272.2,73,227.33s41.22-120.53,128.35-89.22,50.61,125.22,50.61,125.22S231.55,362.46,303,381.76"/><path class="cls-1" d="M10.35,332.72,94.87,267.5S134.2,181,175.69,178.8c38.14-2,51.71,41.07,39.71,71.48-7.2,18.25-49.57,78.26-64.18,87.66s-84,67.82-84,67.82"/><path class="cls-1" d="M34.35,373.94s131.37-97.57,141.34-149.22"/><path class="cls-1" d="M211.22,318.11S190.87,382.28,242,405.76"/><path class="cls-1" d="M116.31,415.15s50.56-70.43,78.22,7.83"/></g></g></svg>